PathFileType	4	(X/Y/Z)	D:\Documents\Paper\paper_current\paper_step_1_data\data_step_3\marker\70DL\subject_01.tsv
DataRate	CameraRate	NumFrames	NumMarkers	Units	OrigDataRate	OrigDataStartFrame	OrigNumFrames
200	200	7	39	mm	200	813	200
Frame#	Time	Top.Head			L.Acromium			R.Acromium			Sternum			L.ASIS			R.ASIS			V.Sacral			L.Ankle.Lat			L.Toe.Tip			R.Heel			R.Ankle.Med			R.Ankle.Lat			L.Toe.Med			L.Toe.Lat			L.Heel			L.Ankle.Med			L.Shank1			L.Shank2			R.Toe.Tip			R.Toe.Med			R.Toe.Lat			L.Thigh2			L.Thigh1			L.Thigh3			R.Thigh3			R.Thigh1			R.Thigh2			R.Shank1			R.Shank2			R.Shank3			L.Shank3			L.Shank4			R.Shank4			L.Thigh4			R.Thigh4			R.Heel.Lat			R.Heel.Med			L.Heel.Lat			L.Heel.Med		
		X1	Y1	Z1	X2	Y2	Z2	X3	Y3	Z3	X4	Y4	Z4	X5	Y5	Z5	X6	Y6	Z6	X7	Y7	Z7	X8	Y8	Z8	X9	Y9	Z9	X10	Y10	Z10	X11	Y11	Z11	X12	Y12	Z12	X13	Y13	Z13	X14	Y14	Z14	X15	Y15	Z15	X16	Y16	Z16	X17	Y17	Z17	X18	Y18	Z18	X19	Y19	Z19	X20	Y20	Z20	X21	Y21	Z21	X22	Y22	Z22	X23	Y23	Z23	X24	Y24	Z24	X25	Y25	Z25	X26	Y26	Z26	X27	Y27	Z27	X28	Y28	Z28	X29	Y29	Z29	X30	Y30	Z30	X31	Y31	Z31	X32	Y32	Z32	X33	Y33	Z33	X34	Y34	Z34	X35	Y35	Z35	X36	Y36	Z36	X37	Y37	Z37	X38	Y38	Z38	X39	Y39	Z39
814	4.065	0	0	-0	-331.079	2123.073	238.279	-346.025	2132.255	551.845	-230.189	2049.524	406.08	-209.359	1623.587	296.672	-223.213	1640.872	531.754	-386.202	1655.959	409.44	-316.611	795.176	356.821	-130.282	762.658	335.611	-366.639	768.514	520.918	-250.866	830.605	484.938	-285.253	824.715	571.46	-162.449	751.31	399.321	-219.814	749.047	311.746	-395.928	734.077	422.226	-296.004	813.24	438.981	-264.549	1083.109	292.945	-266.124	1000.223	290.489	-85.289	767.554	571.056	-139.35	756.027	519.242	-183.43	756.284	618.291	-212.033	1310.689	279.841	-218.158	1391.451	265.394	-277.878	1384.844	244.206	-261.263	1321.066	566.051	-199.39	1333.49	586.538	-173.486	1256.316	569.958	-157.788	1092.287	578.83	-186.107	1011.042	582.784	-217.537	1114.889	590.139	-328.412	1083.744	288.817	-331.468	996.061	289.858	-244.926	1036.835	594.429	-273.532	1298.332	259.097	-231.987	1241.536	547.953	-328.878	764.664	580.112	-284.512	755.23	476.165	-355.556	724.714	359.908	-320.465	731.441	458.381
815	4.07	0	0	-0	-330.757	2123.176	237.393	-345.866	2132.467	550.859	-229.862	2049.758	405.225	-208.864	1623.633	295.952	-222.639	1641.276	531.045	-385.639	1656.101	408.863	-316.701	795.22	356.805	-130.301	762.67	335.582	-360.097	767.442	520.928	-244.292	830.27	486.043	-279.332	824.146	571.865	-162.461	751.335	399.289	-219.826	749.032	311.722	-395.91	734.012	422.32	-295.484	812.981	438.952	-264.788	1083.153	292.673	-266.405	1000.252	290.235	-79.113	767.705	572.586	-132.797	755.952	520.523	-177.492	756.154	619.273	-212.112	1310.595	279.466	-218.069	1391.399	264.912	-277.832	1384.855	243.823	-260.139	1321.574	566.111	-198.277	1334.205	586.52	-172.124	1257.136	569.991	-155.337	1093.287	579.251	-182.607	1011.661	583.253	-215.447	1115.136	590.259	-328.656	1083.785	288.673	-331.716	996.1	289.739	-241.806	1036.699	594.551	-273.583	1298.353	258.752	-230.614	1242.093	548.099	-322.726	763.906	580.313	-277.643	755.08	475.967	-355.56	724.736	359.915	-320.895	731.053	458.371
816	4.075	0	0	-0	-330.39	2123.27	236.502	-345.69	2132.643	549.881	-229.519	2049.966	404.372	-208.412	1623.675	295.264	-222.069	1641.662	530.357	-385.087	1656.225	408.306	-316.791	795.267	356.798	-130.319	762.675	335.558	-353.332	766.283	520.936	-237.514	830.026	487.166	-273.25	823.549	572.327	-162.474	751.351	399.26	-219.841	749.016	311.7	-395.89	733.937	422.421	-294.942	812.727	438.92	-264.984	1083.18	292.414	-266.621	1000.263	290.01	-72.755	767.881	574.223	-126.032	755.894	521.874	-171.374	755.969	620.308	-212.135	1310.508	279.077	-217.961	1391.344	264.447	-277.766	1384.855	243.451	-259.057	1322.069	566.213	-197.201	1334.893	586.531	-170.823	1257.911	570.072	-152.933	1094.28	579.717	-179.085	1012.257	583.769	-213.393	1115.312	590.421	-328.853	1083.813	288.531	-331.923	996.13	289.624	-238.675	1036.481	594.696	-273.604	1298.362	258.417	-229.297	1242.631	548.281	-316.378	763.05	580.517	-271.076	754.696	476.127	-355.565	724.755	359.923	-321.32	730.66	458.367
817	4.08	0	0	-0	-329.982	2123.352	235.604	-345.493	2132.783	548.916	-229.163	2050.144	403.52	-207.978	1623.729	294.599	-221.504	1642.027	529.688	-384.551	1656.33	407.768	-316.875	795.313	356.8	-130.334	762.675	335.539	-346.359	765.052	520.947	-230.613	829.873	488.226	-267.025	822.914	572.846	-162.485	751.36	399.231	-219.858	749.002	311.678	-395.87	733.868	422.515	-294.418	812.498	438.885	-265.132	1083.189	292.17	-266.78	1000.258	289.809	-66.225	768.102	575.944	-119.079	755.869	523.279	-165.078	755.738	621.387	-212.105	1310.43	278.675	-217.831	1391.285	263.993	-277.679	1384.84	243.086	-258.01	1322.549	566.356	-196.156	1335.554	586.568	-169.573	1258.64	570.197	-150.582	1095.261	580.22	-175.545	1012.833	584.331	-211.367	1115.421	590.628	-328.999	1083.828	288.392	-332.088	996.15	289.516	-235.534	1036.191	594.872	-273.592	1298.357	258.092	-228.031	1243.15	548.497	-309.839	762.099	580.72	-264.777	754.058	476.66	-355.57	724.771	359.932	-321.739	730.292	458.366
818	4.085	0	0	-0	-329.534	2123.419	234.699	-345.274	2132.887	547.966	-228.796	2050.293	402.67	-207.509	1623.709	293.947	-220.941	1642.368	529.032	-384.035	1656.417	407.25	-316.946	795.353	356.807	-130.344	762.666	335.526	-339.196	763.76	520.966	-223.65	829.753	489.194	-260.674	822.224	573.416	-162.493	751.361	399.202	-219.873	748.99	311.655	-395.853	733.814	422.593	-293.947	812.307	438.853	-265.228	1083.179	291.939	-266.888	1000.241	289.624	-59.529	768.384	577.726	-111.952	755.897	524.722	-158.603	755.474	622.501	-212.026	1310.357	278.261	-217.68	1391.223	263.548	-277.572	1384.813	242.728	-256.99	1323.014	566.537	-195.136	1336.187	586.63	-168.367	1259.325	570.364	-148.283	1096.224	580.757	-171.993	1013.391	584.939	-209.361	1115.468	590.883	-329.093	1083.833	288.258	-332.207	996.16	289.417	-232.383	1035.838	595.096	-273.546	1298.339	257.773	-226.808	1243.647	548.75	-303.116	761.062	580.917	-258.667	753.169	477.547	-355.572	724.786	359.942	-322.148	729.976	458.368
819	4.09	0	0	-0	-329.051	2123.47	233.785	-345.032	2132.957	547.032	-228.419	2050.411	401.822	-207.085	1623.713	293.276	-220.379	1642.681	528.388	-383.538	1656.487	406.75	-316.997	795.38	356.817	-130.35	762.647	335.519	-331.858	762.423	521.005	-216.646	829.586	490.084	-254.203	821.471	574.027	-162.495	751.354	399.174	-219.882	748.978	311.634	-395.838	733.781	422.653	-293.554	812.161	438.825	-265.27	1083.15	291.723	-266.949	1000.211	289.453	-52.674	768.731	579.544	-104.664	755.993	526.189	-151.951	755.187	623.643	-211.904	1310.289	277.838	-217.511	1391.156	263.104	-277.445	1384.771	242.375	-255.991	1323.462	566.753	-194.136	1336.792	586.716	-167.2	1259.97	570.57	-146.033	1097.164	581.336	-168.432	1013.937	585.589	-207.368	1115.458	591.187	-329.133	1083.829	288.131	-332.282	996.159	289.329	-229.22	1035.432	595.38	-273.465	1298.307	257.46	-225.623	1244.121	549.041	-296.214	759.955	581.101	-252.637	752.054	478.742	-355.572	724.801	359.953	-322.536	729.728	458.375
820	4.095	0	0	-0	-328.534	2123.501	232.865	-344.769	2132.997	546.111	-228.034	2050.498	400.975	-206.668	1623.671	292.647	-219.817	1642.964	527.751	-383.061	1656.54	406.268	-317.022	795.391	356.83	-130.352	762.615	335.518	-324.364	761.06	521.078	-209.583	829.308	490.93	-247.613	820.653	574.666	-162.486	751.339	399.145	-219.88	748.963	311.617	-395.824	733.767	422.698	-293.246	812.059	438.807	-265.256	1083.101	291.52	-266.967	1000.169	289.291	-45.668	769.136	581.375	-97.229	756.158	527.666	-145.123	754.884	624.805	-211.741	1310.222	277.406	-217.325	1391.083	262.658	-277.302	1384.715	242.026	-255.007	1323.893	567.001	-193.154	1337.372	586.824	-166.064	1260.578	570.812	-143.818	1098.08	581.967	-164.866	1014.473	586.28	-205.383	1115.397	591.54	-329.119	1083.816	288.011	-332.311	996.148	289.252	-226.042	1034.984	595.737	-273.351	1298.259	257.151	-224.471	1244.568	549.375	-289.139	758.797	581.267	-246.567	750.764	480.177	-355.568	724.818	359.965	-322.891	729.558	458.391
